<mxfile host="Electron" agent="Mozilla/5.0 (Windows NT 10.0; Win64; x64) AppleWebKit/537.36 (KHTML, like Gecko) draw.io/24.7.17 Chrome/128.0.6613.36 Electron/32.0.1 Safari/537.36" version="24.7.17">
  <diagram name="第 1 页" id="Ims4qJsaeMokCS9snVPi">
    <mxGraphModel dx="893" dy="519" grid="0" gridSize="10" guides="1" tooltips="1" connect="1" arrows="1" fold="1" page="1" pageScale="1" pageWidth="1169" pageHeight="827" math="0" shadow="0">
      <root>
        <mxCell id="0" />
        <mxCell id="1" parent="0" />
        <mxCell id="6D9CgemH8EwdIrZlMoVj-6" style="edgeStyle=orthogonalEdgeStyle;rounded=0;orthogonalLoop=1;jettySize=auto;html=1;" edge="1" parent="1" source="6D9CgemH8EwdIrZlMoVj-1" target="6D9CgemH8EwdIrZlMoVj-4">
          <mxGeometry relative="1" as="geometry" />
        </mxCell>
        <mxCell id="6D9CgemH8EwdIrZlMoVj-1" value="" style="shape=image;verticalLabelPosition=bottom;labelBackgroundColor=default;verticalAlign=top;aspect=fixed;imageAspect=0;image=data:image/svg+xml,PHN2ZyB4bWxucz0iaHR0cDovL3d3dy53My5vcmcvMjAwMC9zdmciIHZpZXdCb3g9IjAgMCAxMjggMTI4Ij48cGF0aCBmaWxsPSIjZTc1MjI1IiBkPSJNNjMuNjYgMi40NzdjMzMuNDc3LjAwNyA2MC45NTcgMjcuMjk2IDYwLjkxNCA2MC41LS4wNDMgMzMuNzAzLTI3LjQxIDYwLjYxNy02MS42MTMgNjAuNTkzLTMzLjQ0MS0uMDIzLTYwLjQ3Ny0yNy4zNDMtNjAuNDUzLTYxLjA4NkMyLjUzIDI5LjQ4OCAzMC4wNjYgMi40NyA2My42NiAyLjQ3N3ptLTE4LjUwNCAyMS4yNWMuNzY2IDMuNzc3LjAyNCA3LjMtMS4xMTMgMTAuNzY1LS43ODUgMi4zOTktMS44NzEgNC43MTEtMi41MiA3LjE0NS0xLjA3IDQuMDA4LTIuMjggOC4wMzktMi43MjYgMTIuMTM2LS42NCA1Ljg5NSAxLjY3NiAxMS4wODYgNS42NCAxNi4yNWwtMTguMjIyLTMuODM1Yy4wMzEuNTc0IDAgLjc5Mi4wNjIuOTc2IDEuNzI3IDUuMDc0IDQuNzY2IDkuMzQ4IDguMTcyIDEzLjM3OS4zNi40MjYgMS4xOC42NDQgMS43OS42NDQgMTguMTY3LjAzNiAzNi4zMzUuMDMyIDU0LjUwMy4wMDguNTYzIDAgMS4zMTctLjEwNSAxLjY2LS40NjggMy44OTUtNC4wOTQgNi44NzEtOC43NTggOC43MzUtMTQuNjNsLTE5LjI5IDMuNzc4YzEuMjc0LTIuNDk2IDIuNzIzLTQuNjg4IDMuNTYtNy4wOTggMi44NTUtOC4yNDIgMS42NzEtMTYuMjEtMi40MjctMjMuNzI2LTMuMjg5LTYuMDMxLTYuMzI0LTEyLjAzNS00LjY4My0xOS4zMDUtMy40NzMgMy40MzQtNC44MDkgNy44LTUuNjU2IDEyLjMtLjgzMiA0LjQzNC0xLjMyNSA4LjkzLTEuOTcgMTMuNDMtLjA5My0uMTM2LS4yMS0uMjM4LS4yMy0uMzU1YTEzLjMxNyAxMy4zMTcgMCAwMS0uMTY4LTEuNDIyYy0uMzk0LTcuMzY3LTEuODMyLTE0LjQ2NS00Ljg3LTIxLjI0Ni0xLjc4Ni0zLjk4OC0zLjc1OC04LjA3LTEuOTE1LTEyLjgzMi0xLjI0Ni42Ni0yLjM3NSAxLjMxMy0zLjE4MyAyLjI0Ni0yLjQxIDIuNzg1LTMuNDA3IDYuMTMtMy42NjQgOS43OTMtLjIyIDMuMTMtLjUyIDYuMjc0LTEuMTAyIDkuMzUyLS42MSAzLjIzNC0xLjU3NCA2LjQwMi0zLjc1IDkuMzc1LS44NzUtNi4zNDgtLjk3My0xMi42My02LjYzMy0xNi42NnpNOTIgODYuNzVIMzUuMDE2djkuODk4SDkyem0tNDUuNjg0IDE1LjAxNmMtLjA0NiA4LjI0MiA4LjM0OCAxNC4zODIgMTguNzIzIDEzLjkzNyA4LjYwMi0uMzcxIDE2LjIxMS03LjEzNyAxNS41NTktMTMuOTM3em0wIDAiLz48L3N2Zz4=;" vertex="1" parent="1">
          <mxGeometry x="243.00337402343752" y="350" width="128" height="128" as="geometry" />
        </mxCell>
        <mxCell id="6D9CgemH8EwdIrZlMoVj-11" style="edgeStyle=orthogonalEdgeStyle;rounded=0;orthogonalLoop=1;jettySize=auto;html=1;entryX=0.5;entryY=1;entryDx=0;entryDy=0;exitX=0.5;exitY=1;exitDx=0;exitDy=0;" edge="1" parent="1" source="6D9CgemH8EwdIrZlMoVj-2" target="6D9CgemH8EwdIrZlMoVj-4">
          <mxGeometry relative="1" as="geometry">
            <Array as="points">
              <mxPoint x="876" y="514" />
              <mxPoint x="591" y="514" />
            </Array>
          </mxGeometry>
        </mxCell>
        <mxCell id="6D9CgemH8EwdIrZlMoVj-2" value="" style="image;aspect=fixed;perimeter=ellipsePerimeter;html=1;align=center;shadow=0;dashed=0;spacingTop=3;image=img/lib/active_directory/internet_globe.svg;" vertex="1" parent="1">
          <mxGeometry x="826" y="364.59" width="100" height="100" as="geometry" />
        </mxCell>
        <mxCell id="6D9CgemH8EwdIrZlMoVj-5" style="edgeStyle=orthogonalEdgeStyle;rounded=0;orthogonalLoop=1;jettySize=auto;html=1;" edge="1" parent="1" source="6D9CgemH8EwdIrZlMoVj-4" target="6D9CgemH8EwdIrZlMoVj-2">
          <mxGeometry relative="1" as="geometry" />
        </mxCell>
        <mxCell id="6D9CgemH8EwdIrZlMoVj-13" style="edgeStyle=orthogonalEdgeStyle;rounded=0;orthogonalLoop=1;jettySize=auto;html=1;entryX=0.5;entryY=0;entryDx=0;entryDy=0;exitX=0.5;exitY=0;exitDx=0;exitDy=0;" edge="1" parent="1" source="6D9CgemH8EwdIrZlMoVj-4" target="6D9CgemH8EwdIrZlMoVj-1">
          <mxGeometry relative="1" as="geometry">
            <Array as="points">
              <mxPoint x="591" y="293" />
              <mxPoint x="307" y="293" />
            </Array>
          </mxGeometry>
        </mxCell>
        <mxCell id="6D9CgemH8EwdIrZlMoVj-4" value="" style="shape=image;verticalLabelPosition=bottom;labelBackgroundColor=default;verticalAlign=top;aspect=fixed;imageAspect=0;image=data:image/png,iVBORw0KGgoAAAANSUhEUgAAAgAAAAIACAMAAADDpiTIAAADAFBMVEVMaXH///////////////////////////////////////////////////////////////////////////////////////////////////////////////////////////////////////////////////////////9WVFTz8/P///8iHiAkICLz8vMqJicsKSkmIiIoJCUkHyF0cnLb2tooJCZpZme+vLzi4uLQ0NBLR0hRTU74+Pg3NDRhX2CAfX5dWloxLS/r6ur6+fovKy2Ni4wvKy2sq6vFxcU9OTr///9CP0BEQEJVU1NlY2M8ODqfnZ5TUFH9/f2HhYaSkJCopqZXVFX///98eno3NTUnISPU0tI/PT4zLjA4NDZvbW5EQEJxb2+Ylpft7e3q6uo2MjJubG1aVlf9/f1lYmOenJyHhIX7+/vBwMCzsrPa2dm1tLSpqKlFQ0ORj5D19fX8/PzJyMgyMDD////9/f1fXF2hn6Dd3NyDgYHY19eamJjy8fJ+fHz1gRL///8iHiDX1dVoZGYiHh4mIB79/f0lISIoJSUtKSrxfhL6+foqIh40MTL7+/vx8fHzgRI2Jx4kHh7zfhLz8/P29fV4dXbo6Og9OjtDLRzufBLOzc0kIB7ddBPk4+M5NTXZ2NjpehL39/dNSktgXV6GhIRST1DPbRS4t7fHxsZubGzU09O9u7zidxO3YxWwrq++ZhR/fX3h3+FiPBqLiYnvfhIkICCuXhZPMxyYlpeDgYHr6+ujWRa0s7NBPj86Nziop6dFQkOSkJDCwMFXVFV/SRiOjI1zcXFyQxqsqqugnp9IRUUvLCxpZ2cyJh6koqLrfBIwJB7leBLu7e2YVBhJMBzn5eWGTBjEaRSUk5SMTxjXchTTcBSJh4ecmpoyLi54RhomIB8+Kxzv7e9VNRxKR0h8enpdWVrc29tkYWKSUhhpPhpsQBrKycpaV1edVhhbORs8KhxcOBzJbBRmZGQuJB6pWxbHahRYOBxYNhyxsbHVcBShoaG3h2EIAAAAgnRSTlMAEBQOCggMAgQGGiAmEi42GBY+HhxIJCwiNCooPDBGOjgyREBOQkpMrVJQ/ftU7+r39PqSXfKbaVlhvLRP16OKqOBXU+SC53Fk0VXHw7CfzHerTIZ9cqRdj9v1Xcvc05e+g3tXStucmUqQdG9ncGdIbV6zekx+VeFrcryVcruRjkKpAOvE1wAAAAlwSFlzAAALEwAACxMBAJqcGAAAIABJREFUeNrtfQd0XNW1tiVZLhpJI82oTJOmSmNmZEmWCy64yg0ZsC0XjHBFgOWYR3VM8sKfR6wBLclyxcTGBAdjDBg3CBA8FNNiCL23UALBdEgg5QHvhfX+dc69M3NHmrbPvefec+/cw1pvsZL1ViTt737nO3t/e+8BA/SjH/3oJ+vO4D5H/4tkXfAHxP2jgyCboh+JuJABuP9I//tkRfj5M4Q/AhToENB6+AdEYj9UeKIo0CGQDeGPBD+fPxEQ6BDIhvBz335+/sCBAwcOwgf9G4cCDgM6BLQZ/1j483Hs8wQHoyBfCAH9L6bFV38k/Dj4OUXRk8NjIAYBnQS0G3707ecUFeXm5pbyJzc3F4Ng0CAOAvo9oE32j4YfRb+0pKSgoAyfgoKSklKEgX4Q0P92Gvr8o+RfVJRbWlJQZjYbDBZ8DAazuaygpJSDwMAYBHQS0JD2Hzp0qCD8ZrPBUlFo509hhcVgNgsgIECADgENsT8X/oIyg8FSaLdVFlfxp9hmsxdaDOaygtJcrAX0e0CD7D9oUF4ODr/ZUlFoq6xyW61Go8vlchmNVqu7qtJWWGExl5VgCOj3gNY+f479c0tLUPjttmK31ehyOkwmr9frNZkcTpfR6i622SMQiLsHdBLQwueP2B/d/QYu/C6nyVtz/k/WLF65cvGay86v8ZqcLgSBwgqDuaCElwI6CWjj6Y+1P2Z/s6GiEIff4a2pPn/V3NGNTU1NTY2j5y44v7rG5OAgYDGYCwT3AM4L6UkB1Ys/jv0L7Vz4PeXrFpze1hTsCnYFg13BptFzr1hX7fFiCNgLBfeALga1Iv449q+s4sLvv/jy+mCoqysYQqcrGGyqn3Cxv9zjdRitVZV2/h7IicsL6SSgVvHHs78Fsb/Raaop948dM7UpGPwtF350fhsKNi4bOdZfXWNyGgX3gC4GNSL+ouxvqqlu9V2xtC0W+8gJBtvm/MSHIIDvAe49oItBNYZ/QB/xx2t/xP41nlrf7CkNwf7xRxComzlltq8WS4Eqm+AeiIlBHQKqFH9R9vd0+NsnT2xKGH4Mgcblk9v95Z7IPaCLQZWLvyKh+DPVVPsDi8aPThp+fA/Uj58VaK2uQSQQFYNFuhhUU/j7ir+KQluV1ejwemp9o8ZMr0sVf3wPTB0zCt8D6D0QlxTQnQIqY/+Y+OO0f/OMuY1pwo8h0LZ04XB/Ofce4JMCRfo9oPKnf3VrYPaw+p4M4o/ugYZhswOt1d64e0CvEKnp6Z8X9/T3ejp8Y5dc0JRR+DEEms5ZMs3X4fHqSQH1Pv0LUNmPf/r7A/NWjs44/BgCI1YuCgiTAgV6UkBNT/+o+HNh8Tdu0sy6cAh0gnUzzxoXTQrgImGpnhRQz9PfHH36l/uHLzi9MRgCn2Dj6TOa9aSAusVfTXVr4NQJ9UGC+OOkwIRT+yUF9AqRSsSflRd/I5c1EYUfnZ6mZSPHcmLQqotBlYi/Ml78ObH4O2/OCOLwc2JwznlYDDr1ChGz4U9c9/FW47pPnaj4IzHYMGW2j08K2BImBfTMIJPiD9V9ljeJDD+XFEAVoo6oGDToYpBF8VfUR/z5A7PGZ5j5y0AMjp/FJwWQGLToFSLmxF/U9FMZq/tMrZMk/Nw9MD1WIeqfFNB7iBgRf7G6z/CFiUw/YiDQtnRhc58KkX4PKJz5G9pX/AnqPg1BSeOfokKk3wMMiL/4us+0JRObJA4/JwYvWDJWrxCxJ/761n0WAes+IipEelJAofAPTlT3weIvcO5ZM+soxT8UCqevEOlJAeWe/rzpJxyieIKNpy8YrleI2GD/BHWfM8FP/y1b9AqROp/+CUw/Iy+Air8tf3vnnb9CIRCpEDn0CpHyT39B3WfeGeC6z1uPvL5p0+uPvAVOCqAKUbleIZL/6Z/E9FPNmX6A8X/5j38+dt2GDdcd+/MfX5a8QqRDQD7x5+nwD1+wHGr6OfmPu1+9bgM+1716979O6hUiFYu/S+Gmn4/fvGsTH/8NG6779V1vfgw1DY7uVyEq1StEMoi/WLN3tO6z4koo+2959s5j0fBjCBy781moGExfIdKTAtTEXyEv/sr9zefNAdd9Hvzh9bjwYwi8/sODeoWI1fAnM/20BghMPzv+9P6xfvHfsGHDsff/tAOIgLBeIZJf/AmavX0pm72TiL/f33NTovAjErjpnt9DxWCdXiGSTfyBm70Tnd/8XSD++iFg011//w28QjRPrxDRe/r3b/auBDR79z3ff3Rn8vDzYvCj18A9RJP0HiL67N+v2XvhUvDT/8EHbk0Zfj4p8G/YPRDWK0QyP/2x+DsT/PTf8d7Nm9LGH90DN7+3A5YUQBWiS/UKkZx1nyXwus9f37kpg/BzYpCgQnTlCr1CRPHp37fZm6juk2H8EQmIrRAV6mJQwqd/32ZvuOnntY/uPJZx+DkxSKNCpGcGRdd9+GZv2BV98tNo3QcAAZIK0cTJaLCIXiGiWPchaPb+59c3bwLHHycF3vwYeg/oFSJK4o+82XvL3/7nGEH46VWIdAgA6z5C0w+82fvBH17ftIH4EFSIehrn6hUiEZm/lM3eJKYfEeHHJACvEPXU4wqRnhSQUvx1+NsXgJu9BaYfERAgqBDpPURSiz/c7B3sEWH6EYEAogrRGXqFiFz8JTD9wJu9v3/2zmMShJ+DAI0KkZ4USCP+xDV7Z1L3ASUF/g29B/QKEUH4pWr23vGn9zdJGH++QgTvIdIrRCTiT3SzdwrTjxgxSFQhGsVXiKpsyUbP659/ombvSjcl048YEiCrEDXrFaI0T//kzd6+c8+aTlD3oRF+0gpRUFAh0kfPZ/b0t4to9g5/KsHTX/IKUbteISKq+5xZXwc3/RyjGH/iHqJFeoUo87qPiGbvzE0/Yu6BO5/9Xu8holj3cYlp9qYefwSBWx8A9xA1zp0RrRDpSYE0ph9Rzd5ynOs2wStEwfoz9cEimdV9ykU2e8sCAaIK0Ui9QkSr2ZvQ9CNzhWg0XyHK6sEiScVfFW/6GbXiShlNP6LEIGGFqFpQIcq25cS0mr03bVDgEFWIli8YLhgskmViMJ3ppzX5Zu9U4u99RcJP3kM0K1vFYNpm72kEzd7/uPum6zYodogrRLXZVyFK3+w9C173kcj0o1eI5Aq/uM3eFE0/8leIUi8n1lpmMJNmb6j4C0tr+lGkQtQ/KaBJMUjJ9HPzJibiT9xDlDUVorSmH4JmbyqmH7krRGedG8iCHiIqzd6UTD96hUiOp3+CZm+g4Z+i6UfeClGP5itEaes+zTPAm71Pfipr3UevEFE1/UygNelHITFI3kOkwQoRlWZvOUw/SvQQJRksouIeIirN3nKZfvQKEQXTjyTN3sfYDj9XIfr6n9DM4Git9RDR2Owts+lHTFLgf/4GrhBNHZOmQqQmBKQXf7PGgx3f//z6rl+rIv4bNmwQVSEyJqkQqUcJ0Gj2VsT0I3eFaFiaCpE6WCC96Yek2Vsh049eISLN/End7H1sg9qOhD1EKkoKqKbZm+UKkXp7iKg0e3/MXN2HZoUozFeI1JgUyGSztzpNP7JWiMJ1Kq0QpTf9zJjbqFbTj1IVIvWMnqex2TvMcN1HrxBlWvdhvNlbFT1EdtZ7iFTd7M1qhahJNRUiKpu9wRseNFghqh/fv0LEoG2USrP3pyqp+9CtENWlrRApnxTQRrM3uxWi/suJi5i6B9KaftTS7K1XiCiYfsr9AYJmbyT+Nmj0kFWIlkxj0zaadrO3j2CztypMP6KSAmJ6iLikACMVonTN3v52ombvVzUc/g3UeojkF4MpxR9hs3f44zfVY/oRVyEClol7mKsQ0djsveXZO49pP/xcUoCgh2gCQxWitBseCE0/WRF+yStE8pNA/8+/32bv7DD9MFEhiicB+b7/xOKPM/1ckDWmHzEQIKkQTZkdP2WOF4OyGodjpr9+nz9n+tFCs7eKKkRREpDpGhC4fvqMeSTd7P39R1ki/iSoEPUE68f3nzLHK4EhMlwDMdMvevxxnz/O/EVMP+DN3how/ShTIRKSQJ9rgCYABgi+fyz+uc+fE3/wZm9tmH7krxANRxUil9XNkQB6DgibyCjzf0T+8W9/e2TMIzL9AEd9aMb0I3+FCItB7kXIXwMyIEBw/6PrH9E/9/nrph8FKkTcqMmqSnwNcK8B2pdA7P7H8S8zW+yV/Oc/Dt7s/Zq26z4ABBD1EK1chJeRIaNAhSEiBOhSQJ/vv4yjf4e32n8KwWbvTzVf96FcIZp51rmcEqiyVRjMGAH8a5AWBWACiNz/KP42/PYv96HN3rrpR3SFCL6ceMYptR50DdgKDeYSrASj+QCKBBAff0/5qDFTddOPIhWipvoJF7d6vBwCyjgEULwEEAGgC4DT/zj+TlP1uivmZEGzN8MVovPXYQRU8AigRwFRAsjLKSotMFfYq6xOr2f2YpIND/rnL1mFqG3OT6p5BBTwMoASBfAEwF0AZou9GPE/Mv38Fmr6uUkPf3IxCK4QNc1cfUmN01pst5jjLgEqDDAEvQByUPwLK90u7yWrG4C3f1jxDQ+aqxB1BUdMuMzkclcWGsowBVACAKYVjgDQBWCrMjoumzAi2NWVRc3ejFaIgk2Xr7/aWGWrMBfwKoDGHSBQANwF4Fx/OfDzP5nNdR+aFaJg2/z1TmsxpoDIHTCADgDwEwARgNt19eqGIOjzZ2jDA/MVoh9gg0WC9atdLkQBJaVFURlIAQD8DVCGCMCxdi7o+89C048YCMAqRF3B5WsxBRSU4juAEgC4GyC3BBOAd019FwAB2Wn6ka1C1NW22mmsslsidwAtAORjCWgoLLY6L1sJCP9rH+niD54UAPQQdQXnXOZy29BLMIcOAGISAN0AVUbT2onB6zN9++l1H+oVouCytUZrZQUCQEQEUJIAkRtg1XTd9CNHhSicIQNMX4NEAH4I0gRAXg56A1RanTVrRmf2o+mmH1kqRL+tX+OKqEAqz4BIGpCXACbP4jrd9CPLPXDP/2ZEAU2rHTSfAUIJYEAS4Pz5mWnAtx54VY+imHNzhu/BxtVOY3GhRQ4AWOxul7d8fobP/5efvVNnAOLz6g8PnuzKLBW0xkHzCuAAgNJAJWaLze2sWTc/0wfKyd+8+boeSTL+/++/vZZpMmD6Gpe1stBASwQKAVBhswIAEApdv+X39+j+D4Lz+tcfn8ww2R4Ozl3rcqNcMG0AoFdgpdXhOW0YJA2840836/EEnmN3/+v76zOvBsy/xFplr4gkgqgAAKUBciIAWAcBQCh88sEfdDEIOu//cQckFYzTABRTwRE7KEoDFBZbHdWngAAQCp187W//rYtBgPh7awukUyB4+XorsoTwjwBqAEB5IJwGqD4NCAAkBr/WxWDm4u960B93+VpcCxJmgmkCwGgCMwAWg/+455ge3fTnrszFH3/q11xtjBIAFU9YBABFIgCAxOAf39fjm1b8/XsL6PMPhaevuSTeFTqYPgCGkwAg1HXyrUdu1WOcWvy9DGwOqJu79mqHkfeF4+agIfTsIEW5BZbCKqOpnAwAodD13//1nV/rYU52bn3kLSD7hxpWr68xGd2x7jAqntA4BqgyeokBEOo6+c/37tIjnfD8+p2/fg9j/1DjGVec77kamcItZiEBUASAOAbAYvB/79bFYKK6z3v/hH7+y0aeu85jQi3iOP451PpCpGMATgx+9Gc93qLFX2j0hIvXVdc4jO5Ku8VcVpqbE2sNZFYDRMXg33UxGHf+/NEOqPg7fcHYdXhYFMf/ucILgG0GwGJQrxAJxd/f4eJv0uzT+PkQhRZDAeXxABIzACaBHe/pFSIR4m/etFbBmKjSuPhT6QyUlgFQ/mLLpw/cpEefRPwFl40cdRo/MNTOzYeJi/8AFTCAbhfiz00PfAoXf5ee0hEZGRybEZZPcW48DQbQ7UKo7nPnsy/Dxd+008pjQ8MFE6P57181DKBXiG598zdg8XfWuFMEuwSFu0Mo7o2gxABZbhfadM/vtwA//8aV86bFL5Dqs0qSyvcPY4CNG6H3QJbahW7+0w7g5x/mxJ830eoguhul+zFAYFjSscBffXg7EAJZaRdCjm/geND6My89JW6JZCm/N0iwMYTekNB4BghMSfpjfnfk+Ic3Qkng46+zq0J03Z3PvgYWfzOmtfJrZLkR0X2XBlGcEw3RANde0735yDO9uhhMcV6Hi7+ZZ80+JeHuQFm2hkE0wLXXdHZu2/7jAd0ulFT83f0P6NO/cfyiaa1R8RdZJR//+Q+QBwAZMEBnZ2f35vs+2KrbhZKKP+AcsAuWRDN/0bdf38+f7qYQIAMgCOw/9BVQDGaFXSjjdj+B+BsWzfwJlkb2WRREd1kUmAEQArYd/78/wO1C2k4KQNr9op4/BcWfCAbA98A1N4DFoKbtQnDHd2j6mHHx4k+Y+pHn8ydkAAyBnQcPhKFiULN2oWN3/wsq/trGLzolnfiTY18oGQPge2Dv07fodiF8YO1+CcSfOaH4GyDHvlhSBuDE4HdgMahBu9Ctj7y1BSz+Tk0g/gbJKf5EMwAmgTdeeQFsF9JYhYjA9FO3lBd/iP2VEn8SMAAWg/s+fxFoFzqpKbvQXe8Rib+OWNk3PvMn7+cvkgEwBHYdfAq4VFJDdiECxzcv/hxKiz9pGADfA2+feDxL7UJwx3fwnMnpM38DZIy/aAZAZ/83L0HFoBYqRPB2v55+4q9UMfEnGQOgs+2TJz7LNrsQEn/A37lp6cK+4k9R9peMAZAY/PLev2SVXYig3S+l+BusyOcvFQPgzODRb6FiUL12IQLHd9v4WQLxZ1Fc/EnLAFgM7n4XLAZVahf680dQx3dw4uSxbGT+aDEAzgzuOZwNFSKCdj8GxZ/kDIDF4PbnbgP3EKnMLrTpnt9DM39x4q+CEfFHgQHwPfDlw2AxqCq7ENzxHZq+Aos/J1vijwoD4Mzgk18AxaCK7EI3PfAp1PE9Iir+YnUfZj5/yRmAE4Mf3hgGkoA67EIE7X59xJ+BHfFHiwFwUmAP3DuuggoRgeO7YcpsVsUfNQbAENj+421Qu9DLjNuFULsfVPzNWdjOrPijyADE3nGW7UJwx3do6opxp9XGxB977E+PAXBS4MmvtGMXImj3GzFBKP4szIk/ugzAeceff0wbdiECx3dweZLMXz5Tnz9FBiDzjjO5f+L1r7Uo/qgzACcGHwV7x19jzC5E0u435zz2xZ8MDIBJYO/9W6FJAabsQsjxHYaKv1EqEH+yMABhIyE7dqFXf3gLGn406CtZ5m8Ia58/dQZACOh+4xVgIyErDeXgBS9I/C3oL/7yWBR/cjEAmXe86+RbyotBgnY/gfizMS7+ZGMAvpHwKSCTXq+0XYjA8d14Bif+XGoQfzIyANdIeEJddiF4u19o6kg1iT9ZGQCLQQLvuGJ2IYIFL0j8nZYk8zeE1c9fNgbAdqE3nngBLAYVqRCRtPupTvzJzQCcGLxXDXYhAsd3wyTViT/5GYDMOx6S2y5EJv4Eg75UIv4UYACukRDuHZfVLgRv9wvFT3lVi/hThAFIveOy2YUIHN+jJ1w6XE2ZP2UZgGskfA7cSChPQ/mv3/krlP2DkRH/qhN/SjEAqXf8N2/eyqj4q41s+Og75HmICsKvBAMQese3ULYLEbT7cfudVCr+FGQAzjv+EHjuOE27EInjW93iT1EGIPOOU7QLESx4yaTsy374lWIArpHwd+BGQjp2IQLHN1ru6U8n/garIP6KMQCpd5yCXYig3S9uv1OF0oO+VMoAnHf8dqXtQnDHdzh+v5NBneKPAQbgvOPQRkJp7UIEC16Cy5ZoQfwxwQD4HgAvoZGwQkTQ7tdvv5NKxR8bDIDF4M5HoUtorv9eErvQsbv/BS770t3vNLjPyQIG4MTg/WAxKIFdiKDdr99+J+lG/MfuDsE/8i6MUIgBSL3jIu1CBO1+mex3IgtYJPT9GID7zzTOAGRLaMTZhUja/aiN+Of+HyNnCHeEKBg8WOMMwHvH4WKQtKGcwPGNxB+V/U6x6A8ZMmSo8MR2xlJEABsMQOod30JkF9oEXvASprbfKRr+aPDzuRMBwWCmNod2UkUAyRIaArsQgeN75pjZVDJ/sfBzoR+IziB00L9wKBhClwTYYQDCJTRQuxByfMPFH539TsLwo+gPGjQoL3YwCvJp749liAG4RkK4dxxiFyJwfGe03JPw84+FH0U/Ly8vpyh6cngMRDQGJQ5gigFIveMZV4jugpt+qE155T//SPjz8vKKiopyc0v5k5uLMTAofomw1hkgIgbp2IUIHN/R/U4UxF98+HOKinJLS0oKCsrwKSgoKS3lb5oI1VDhANYYACeHwUtoMto/QeD4jhvxT0H8ofjz4cfRN5sNBoPFYrEYDGZzWUGJkG0oUQB7DMA1Eh4GisG0dqFbHwHXfajtd4pj/0j4UfQtFYWFdnwKKyoshjjCoYQAFhmA0DueqqGcRPzF73cySy3+ouzPh99gqbDbbcXFVfgUV9rsHARyi3J4mzGVS4BJBuCW0MC94x9//bpkjm85xB9mfz78FYV2W3GV22o14mO1uosr7RzuMOxoUQCjDIC94+BGwuu/T2gXInB8J9jvREH8ofAX5XLhx9E3upwmk9fkNZkcTpfVzQkPhIBBg/IpUQCrDEDmHU9oF4IveKG230kg/qLsj8gfhd9qdDq83pr1a1fPX3n56lXrHVHtUVJaxEGPBgWwywBkjYT97EIE7X4j5BJ/iP3LzJZCOw6/qcaz7rL50xsbm5qa2toaVq69xGm0FtsqDGUluUWxSyB7GIDQOx63f4JgwUvonMntNDN/fPjx54/Z317Jhb+6dtHl9U3BYKgr1BUMBpsa567FPWcVhrLS3Jy8QXQogGkG4OxCd8DF4Ht3kTq+ww3DTh3eKpP449nfzYX/3DXT64LRXyLYFWyauuYSl7XYXmEuKI1SwIDBWcUAXCPh7WR2IYIFL01LF7b7BW8/yRzf/cUfZv8Ke7Hb6nLUVNeedsXStmA8FoPB+tUIAYUWM74E8mncAawzQMQ7TmAXgrf7ha68cFyzv3+3Lw3xx7G/rcrqcng9Hb7ZwxqCwb5UFgw2rHEY3bYKQ4QCpL8D2GcAUu/4jh3wzN+s9pZazvEv6Yj/ZOKPY39PuX/a5IlNwUTJqOCyVU5rlR1RQE4eFRmoAgbgxOCPUO94GBj+nnMmt7cEaj0mZ/ztT1X8IfZvDcwaPzqY8Gf6bbDp8stc7kqeAvLpAoBdBiBrJARm/ib9x0Utza0eE6Z/LgNXJI3nL4n4q7IaHV5PrW/UGIH4S0ABDiOmgNgdkI0MQOYdz/xsnPOLiy5qQfe/k8v9xDn+KYk/p6mm3D98YV/xFy8DmlZf7XLbKoR3QFYyAKF3PFPx96urLrqopSVQXuMwuisLK6IdH0IzhvTir7o1kEj8xXPAysuc1uJCaneAehiAbAlNJmW/v4z/5c9/ftHZZwfwBYCSf2Wx+IuZ9JVG/HX4kok/4U839zITugPK6AOAdQbg7ULQJTTpxd8vfvnTn/3sorNbAh01JkQAFqz/8vIGDRSYcqUXf/7AomTiT3iWr73a6bZREwGqYgAy73jqD2zr//vlT3/6858jAPjQDYAVYEFplACIv39R4k9wlq2qcVorsQigDAA1MEBnZ+cbDz0uJQE0IAD89Oc/OzsVAKBV2MGD+4m/OPavKfc3zzg9mNEPOH1VtQOLgNyivIH5kqtAtTHAtiehjtE02YJw8MAvEAC4K8CR5AqA/dGF3T5xVf/Y03/2hBEZ/oDTV1V7jVWcCqQLADUwwN57X5RaA4aDvf/5SwyAllaPF4nAQs6EIXwEQBo04z7/qOerjGd/J0r8ti+5MnNvwpJyryteBWYtA+x87gUKb8BgKDz9VxdFRYC70o7SQH2fgRnfAnHtPpGnf0Hs6Y/E3xmNmWvU6as6vC633WKmDgDm8wB7XqKVCOpBiaCzW1qiiaAoAgYCGzRjTd4x7V8qrPvU+kZNaoA8ZKYvqa3Bz4BsZ4DjJ24JUTvhnoYpV53dgjIBfCkgweS/9CQwuP/nTyz+YgBoRQBAz4DIOzAbGWDz0QM9IZqnJ3zOgrP5YhDvBCuFkoCU4i+eAawIAEWUAcAyA3z5+Ysh6qd3/KyWgD86AC6RFTgVCUgs/qIAGOn3yAMAdhlg5yuPheQ4PTMvHNXsFw4ATuAHS/b3l1j8xQHAEZ8JyjZH0Df0qoD9pMDpC5t9qduBEr8IMxN/JD+TfABglAF2P701JN/pGT1sdiDZFPCk90BG4m85mYiZOdKHAWDITgbYfPBASN4TXrak3dfBbQCt7NcVkvAeoCL+dAZAZx+F8m9aBDSesSjgr/ak6gsT3gOUxF+MAfzV2coA25+/MaTE6WmYNMqHhkKlGAg8IH6Qn/Tir+8VkH0M0H3o9p6QQie4fEazvzx1b7hwnmsC8VdJmPlLDIBiFhjgJVkB8DbcBNqb9L54EZpGCI+YcGogvkEwUYtImrKvp9zfMmO5OCwiAJisxdnGAPsfhfYEhv7y8N5vEvcQbfxqD0EZcerIsb4EwwH7JAUSNnsLxN+ZI0LiAcAIA8gIgGugjSChnm+f3JZENfzhiZ3ISACdNhCumzMvkHAxUNx7gBvxmVj8TRt5pejbKBsZ4BNwK1jo8Yfe4JPGfd8NvZ/fR2wlqp8yzlebZDsEwsAQfrxvMvE3p7FHEgBkGQN88y3Y1n/4iKBs9K3wHnjq6Obof3XkMDileM6C4VyzKNcuUCYc3BU50UFPceIvMO6sBin8q1nHAHuhs4FCodt+3BWXPDp0mL/we5967hPhf7PrR7CyaBw/K+CPXw/KQ2AgN9V5YET7x2f+AqSZvyx/Bez63WcE4q9/+Wjf0edPPHTweH943QGG18wx0aSATXgPcBOdB8XGvAnF36kTRktkX88qBug+cngj8Lvp+eLQNsq9AuYxAAAYD0lEQVTZhbq5C5vjxCB6D+BZvvjk8No/XvxJlsJoyCINQCDTbvxwO/38Yji+QmThh3iiic5FeMJrATfpJyL+5onJ/PXLSmYNA8AfaqHeZ/bJVGHgK0Q4KYDugTI8yzcXDXfG4Y/P/EF/j62fvxTOegaAp2rCtx3cL1uNkasQRe6BCgua5YtPGZ7witkfZf6aZywPQj/y27954+GUV0AWMMAuuON76/27xVhMt0JFGq4Q4aSAuxjPcTWYzWi6swXN+OQGPSHxB8783fj89s7tKQCwIhsYAO743nj7N93iTObXQv8n61CFqMMTgQAa6FyIJrxW4kFPiP0JMn+9N6BbbHt2M8Dxd8GO78de2S72f5WgzQRViPzlHASqiosrbbbK4uIqKw5/ORZ/UFo5wN1i6RmgULuewM1HodvCQr03fKlQo9mVK6ah94DX4XQZrfgYXU4u/KjsC/xFtj7N32JpAGCSBQAKMcB90H2BofCBg5sVe3jUzZnX7EMsYHI40XE4TDUo/M0LwJm/jV9Fb7HsZYCdT0CnvoS3njiuZOohXD9lXEvAX1tdXYOOp7q61h9o+Y8JI8LgW2xnLDeRpQzQvQfs+N743Z5uSX+GI9B51OGecxa0tAQCPn9ra2ur3xcItLSPvDLcI+YWy1IGIHB8v/DETga8J73jLz27paUl0BJoaWlpOXvRHKj46zlwNO4W25mNDICyMcC/24v33seG+6xn5oVXnc2fqybVQwsY/W6x7Q+Hs44B4PnY8FNPbqPyDiGoEPVsXPpfF+HzX8t7emA43nhtv1ts5x3ZxgAEju/H3z3eSe2QVIj+86qf/eyqCb3Q2z/RLZYGAJpjgO5vbgeLv5eOdHfSPHBG6jnnV7+aCX37Jb7FsowBdsMd35/9bhd7XWg96ABvsaMJUxipAVCtLQYgUN0vJjD90EhJn6Dch3pLslssOQDCCACaYoB9JI7v7k5ZDsUxRKlvsV0pGGCMLzIoUAsMsJ3A8f3h9k7ZDp1BZJz4ey55CmNXegagDwAZGGDboS/App/DMrek7n2YyjSa1LdYCgaov9CvGQZ4G27Jve3R/Z0yH4IKUSa3WMoUxq4PkgNAMwyw60ew43vrB293KnAkHkcs6FsiAYBWNAC46BLquf1Qd6cyB/7DphJ/h9OmMFIAAIlADTAAieP7+e2dih2Ct6qYFIbWGUA+x7eSFaKE5y93ZJLC2J8aAKbovHh1MgCBsD5wcH+nwkeKCSWZ9i3tz4gBitTJACSO76d3dzJwRM8oevzDTzK8cbTLACi5BvyQBF45pc+XYqaUAVIY2mWA4+/eAuVRoVdO8bOZfEkVJIWx/35tMgCB4/tFaRzfklaISCAAS2GkAQAjDACeD3AfeMZ3+MDRzZ2snT1fwMXf7bCmdU0yANzxHbrlxHHmwk/QuABPYWy+X3MaoHvPd3DTz55u5sJPAGOCFEYKAIxWJwMQeCtSlUsVywXAYRw6QFC/yhAAqmEAgv77F+/dyx77E8CYrGldYwwAfz33UHN8i3sCwsUfWQpj8/3hlAAwqokBtsMXvKQtlyqTBAInsImb1relYQCjehiAxPF9+Ah74o8AxiKa1rc9HdIIA+y+n0XHN1z8wWEcEtO0ngoAZ6mIAfYfhM/4voNB8bf7aXD2b+vTYlIYGQKAdQYgcHwDxzzKYwaBw3jjV+JSGJpgAALH942ZlkvlPPue6YV+/n94QqR5SQMMsA1un+h95hr2wr/9+RvBE4s+F920rn4GUIfjm4YLSJL6VXdyAIxQAwMQjGHf+sFu9j5/Ah+gNPWrDAHAKgMcOdzbJU/GjK74gzuBE8x6yD4G+ORDdTm+k51r4L0A0k0sUi8DkDi+b9jHXvg/+fBxsHlJuvpV9wm1MgCR45s900/3k+Cu1WSzHmgCgDkGIHJ8M2j6IVgkI/HEouQAaGOXAbqPvAS9NcVmzKgcgj1Fkk8sygwAbDHA8XfB4u8PTzBo+iFYJvfZc1LXr9THANuefEqBjJn0h6BrlcbEItUxwH33wsc8HmWv7kPwhkk36yErGIDE8f0ui+IPvjCAknnpRFI6bZvEHAMgq2wYKpr2sBd+gjcMNfNSZgBggwEIrLLSiyYJzh74SLjbqJmX1MMAm4+CuyVlGvMIOwR7iv5yB72JRSeSSpHGSb5yeQCQEQMQOL6/ZdHxDe9apWteSgmAvgwwWDEG0Irjm6Tdj655CcQAg2kyQGBK0r/Bd6+AF7z0Hj7CXviJ2v0om5feVQMDbISLph9ZFH/wdj/65qV3mWGAFABgSTSRiz+Cdj8ZzEuqYAANOL5lbPfLdga48UMGTT8EM59kMi+9u1FbDKD4mMdEh6TdT67fIyUAVMcA4dsOMuj4Jmr3k+v3SA6AJvUxANmMBMpn9/0E7X7y/R4pAaAuBtjIpOOboN1P1t8jFQACqmIA4hkJNA+8a1Xu3+OhpACokw0AUjBAL2tjHjvJRv7K/ns8pAkGCDPp+CZq95NbxLIAALEMEN7K4phHeLufIr9HCgBMUQkDbPxujzba/RRxrqfQAFPUwQAvMOj4Jmn3U8i5nooB5MwDmKpPIQJA4pXICh+Cdj/FnOsPJXVZ1skIgGJCAIRZHPOodLsfEAC9IfUC4PF3NdLup5x56Y2HN6YCgMNKGwCDcjAArA44AHpfOqKRdj/FRGzK9pTgFJ+nz/ZwigBADBCEOb5ZHPNI0O6n4Kzy1C32wSl+j8NaXEEPAIM5AJSYKyqtDs86EAMw6fgmafdTblZ5un3lTRgAlRUGegAYEgOA07MOwgDfHmIv/J2HngKbfpQTsWipWpqnymJ/jdNqizDAEEoAyCsqMVfY3E7PuvmZiyYWxzzu/PAWFYm/DJaq9SxurXG6EQCK8qgCoNRssbldNRkDALAVT87ML7hreaNyIjaj9pTg4g6vy223mEspAiAfAaDMYq9yeaszBACLYx47O4/fC337KyhiM2tPCS4uNxmr7JYyBIB8mgDgEwGLg+oFwOaHgO3eCorYTNtTmlbzeaDSoryB0gOAewfmRzJBVodn9YiMfq4uFq+AR2H93j1fKCj+Mu2yGr0GPQL4PBAHgAEDaL0DbW5nzZoG1YrA45/DxJ9yP//upzMuUs8caeI0IJVXYAwA+BlgrzKaVk1VbeMv6AG4UTkG23/wQCjTMlVw2SosAXgNSAcA/DOAuwMumxtUayLoeUD6/7YfFdMw+0DtKWdc5rTyEoCCBoyqQCQCSgwVNrfr6tWNsBQqM6ngFMv3GGpbBDoU21abXG4bygPSkQBRFYhFgMVeZXWsnQiqBrBTDPrkYfbbFru/AToUT1/rtBbbLXwaiBIAeBGA7oBKRAGj1VkOfvsG5tsWoQ7FYP2aqzEBFNCSAII7IEIBzvXzm4BOmgNMiMH7nmG8bRHuUGycfwlPALk5VLIAUQBEKKDC5jY6189vg5oCWLCEZQKAsIIJLLhDsW3xeocRvQEjBEALAIOH4mQgooDCYqvLdMnqepWYKYEAUHBRDcFejYY155tc7uJCjgAG5XM3gNQAiJlCEAWYLfZiq9O7btUyAjs16wBQcFENwUza4AWTq73cBUCTAIQUkMNdAlVWp7f61PmjoRBQujEkHQAUXFSz9+EXoQbl0fPXe7xOa5UdXwBYAdAjgCgF5JaU8QjwrLvi9CAUAsq2hqUGgIKLanY9B3Yo1s29ohV9/1W2CkMZygFECUB6AEQQkM8hwGwoRAgweWpHjWmA/tyKNoemBMABxWZWdB95CTpaOTR9xdhaj8mF42/m4p9P6QKIpwAOAYgDXKaacv+s8dDnQJeC7eF7kwPgReXEH8Fejbbxl/rKa0wua3Ek/vgCoEUAcQjIKSpFCLAXW40Ob7V/+OQLoPeAcgMiUgDgs4NKpaePPgUWfxMXnNJa7XUY3cX2SPzpKcAYABACsBDEOsBe7DY6TZ4O3+xh4BehUiNiUgDgNoUAcB98IUH9lHG+Do/JaXRX2rn7P0cgAKgiYCjPAbklZWYLEgIuR021v/m8pXXQX0KZIVF7n+lhiwEIZtLWzZkX8FfXOND1X2gxF3DfP1X+xwCI5AMRB+QV5aJ8QKENkYDX0+Ebu2I6WAwqkW9l7AroJphJe+XIsb4Oj9eJ6R+9/yP8z70AKSIgcgnwSpATApUcCbQGLp0AFYNKVFzYYgCA6SdyRkw4NfL5V+Lrv7Qo8v1zAoBa/KNCEClB/hqIkoDJU+4fvmAiVAzKX3PdewM7DLAZYPqJ/MGWz2j2l9eg2784Qv85+P0Xuf+px59XghwCSguiJOCtrvWNmwJOCsjtumAIAPvgM2kbJo3y1Xq8+PbnPn+O/vMp679EbwF8DXAkgJ4DVqepptofmDenCfpLyWu6ZwYABGPJGs9YhNjf5LTyt39JblGf+MsEAE4KxkgAPweMDiQGp428ElwhOiyjXSgFAF6QEQBg008oFFq2pJ0Tf1j8G8rQ58/Tv1zfv4AD+pFAVAyeOmEE9FeTsfHubSYAsBs8liw0+szZgVaB+Iv7/OX6/mOvwXgS4HICETHYPGM5NCkgn3ecBQAQjCWrm7swTvyVCW7/6OcvS/wFUpAjgX5i0FPrG3UWWAzK1XyfCgCPymT6gc+knTkmKv64z59j//jPX6b4x78GIvdAKX4RRsVg86IzGqG/pDzjNxQHwCcfgsVf2/hZAT8u/ETEX2lR389fvujHXQM4KxS5ByJiEGcGpy2B24XkGMCjMAC2HfqCwPTTziX++4i/gcLwywuAhCSAxGAsKdAamD0MbBe6hb5d6O0bwgoCgGAsGar7oLpfIvE3VH7270cCg+NIICYGa8r9zefNhYpB+kP4divIAARjyZqWnpdW/Mn/+fe/B+LEIFcjxGJwzEywGPz8S8oASMoAf6ALAJKxZNNXjMXiD7N/EvGnUPhTiUGcGXThzCDcLhR67JWdyjAAXQCQmH6idR/O9pFQ/CkX/uT3gCGaFOjwD588Eep12/gVRbvQ7ht6lADA5qPfQv8MweULhvvLPRH2Z0T8gcUgqhDB7UL0NjHt/lwJBoCbfsINk8bFP/0TZf6UDn9fEsiPGAXixGBg3lJwhYiaP1cJAOx84gXo7994xrw+ZV92xF9qMTgwXgzyFaIVU8FikJJdSH4AkJl+psXqPjHxx7H/EKbCn0IMGjgxSFohotOjkwoAP1IRfyfAuwhHnDk7zvTDytNfhBgs9w+fsRxsF7r9ULfaAbD56AFo+OtOn9Hsi4k/M5viL02FKI83jMUqRK2+cZPAFaKtH0huFzouKwAIFlE3nJW+7sNc+JOKQWGFyBeYB68QSd6pLycA4Iuoe9pWcqYfQd0nl232T1MhKhBUiGp97UvAdiGpR02mAMBj0gKAwPQTvGBJeyCR6YdR8ZdhUkBgF2qefSa0QhSWdlRjKgb4naRi43646WfYbCbrPtJWiBaCG8p7vn2yWxYGkBAARKafJHUfpsVfxhUiMXahHglHTcoDgH3P9IKbvS+MOb4LVST+iCpEKxuhfx7JvOPH76UPACLTz6nI8pna9KOG8KdOCkTsQu0EDeUSjZqkDwAS08/EBcP9HWp7+ouxC5E0lEszapI6AAhMPw1TxvlqVS3+CCpEBA3lkuwepQwAAtMPbvZm1PRD1y4EbyiXYPvwGzQBQGL6mco1ezv61X3UJv5gFSITYUO56FGTKQBwo1gAEOwiRM3erUybfuglBTwd/nZ4Q/nGa8V5x+kxwLYn4ZN+cLM366YfCStEiexC8AqRKO94KgA8J0r8wSf9CJq9o+Ivh0HTD2W7ELihPHxAhHec0hWw8znwpJ+4Zm/GTT/SV4gEdqGxI8F2IRGjJqkwQPeea8Hir0+zN+umHxpJATF2IeJRk58k3xpJzADHT4A30cY3e1s08PQXZRdqhtuFSEdNbk/KAOEbyRiAwPTTk6jZW0PiLxO7UN8KEYFdiGjUZIqdQWQAIDD9zBwzKqBG048EGEhqF/IHCBrKSUZNSgwAuOmHa/bWSN1HQrtQh68d3lBOMGpyu5QAIDL9sNjszYZdiKShHDxqUkoA7L4f7PhmtdmbHbsQeLoQcNSkdADY/+iBLnCztxbrPtJWiOAN5bBRkykA8DgIAPvgk34Yb/ZmxS4Ebyj/7MddcjPAdgLTj4brPpLZhXCFCG4X6j18RAoGeIKi6Se8fEG7v9yTNU9/UXYhgobyjEdNSnEFvE1g+lFJszczFSJwQ3mmoybFMwCB6Qc3e1ero9lbcTFoxGKQYP9EZt7x7XeIAwAy/UDp/8qR7Wpq9lbeLsRXiMBi8IXndtFmABLTT4ohv0OzjP0BdqFyf/uC5eDpQi+l3Uy7UwwDEOx2Rc3ep8We/obsFX9Qu5CnlqSh/JZ03nExANj7MNz0o9Jmb+XEIF8hMnIjh+EN5elGTZIDYOdz8Ek/K2epttmbkQoRwf6J3s/vowEAuOmHr/uottmbgaQArhBNAFeIUnnHUwDglickNf3UD0Piz5sVph96dqGacl/zDHCFaONXSb3ju0gAQDLpZ6kWmr0VTQqI2j+RdNQkCQC+vIGg2XusNpq9WakQrQSKwXDowMHNUAC8kvjSeOUxaPjbxl+qmWZvxcSg6Iby3hsS2YV2fQADQPc3X4HFn8aavRUUgxZx+ycSjZoEAoBgt6v2mr0VEYN5CfdPQBet9veOgwCw/yDY9KPNZm/FK0S8GLwQXCHa+sFucgAQmH402+zNhBhsDVwKtwv1GTW5PzkAtsYDgGC36wjmNzyovELUQbKhvPeZazIDQBwDbDsEdnzXxTd76+JP+swg4f6JGwWjJjNkgLfhu1213+ytXIWob0M5ODP4RdQulBEA9v8IHvOYHc3e8ovBJA3l4ArR1jt4u9D++9MDgGDST9Y0eysoBmN2IT9JQzk/ajI9AAhMP6OH6aYfWcUgbiiHarSNh9GoyXQAIDL9ZFezt6wkkGz/BElDeRfyjm9OAYD/IzL9CDZ723TTD10xKLahvOepJ3elAgCB6Sc7m70VqxAViN1Q/uINh5MD4JmXwOLvgsnt/qxs9mYgKYDtQuD9E6lryHqztxrEoEFcQ7lkJ9ubvRWtEImyC0lz9GZvNipERA3l4g+/2duk130UvAf4hnISu5DIgzZ7+zQ85FdlFSKihnIxYhE1e7fqzd4sVYgI9k8QHzVt9ta8GBTVUE72+aPN3rV6szdzFSKi/RPwM1p1m72zJSnANZRTFoN63YcJEkixf2JSfZhi/PVmbxbFYEFMDKIN5eD9ExlXktr0Zm+mxGD//ROkDeUZNnsv0Zu92U8KoMzg7DNHSB//etVv9ta4GBTYhUgayvVmb/WKQRkqRNNXjNKbvdm+B/rbheAbyvVmb5WLwbiG8sC0yRdII/70Zm81ikFuQ7kEdiG92VutYpBvKBdp+tGbvVVyDyRpKB8L3z+RUbO3/vRn9h6Q0C40Qt/woP6kQId/+OSJRBUirW/2zhoxWEtmF9KbvVVJAlJtKNebvdUrBqXYUK43e2tDDBJuKI9v9taH/KpYDArsQr7hGW4o100/KieBZA3lrZk1lAubvfW6j/rFYFyFqDltQ7ne7K0VMUjUUB48J9LsrT/9NZUUsAgrRMkbyuv1uo/mM4PoHlh4ejBxs/d5vtZqve6jraSA0C7EJwXK/QntQlNXjOUSv7r402hSgK8QYQgsGt/Yt+5zsb88LvGriz+NJgWsTofXU71u1bI4x/eCVi78+tNf02IQJ4fdRpfJ66m+eHUkOTxi7pr1nppI+PVmb00nBbAUcFtdTpO35vy1ixcvnr96FYq+yYnDz7O/Lv40KwbLkBRAF4HR5XSYTCav12syORwuIxf+vuyviz8N3gMcBKrcVqvR6HK5XEaj1equQuRvMZch7a+LP22LQQyBQrutsriqqsrtrqqqKq602dHdXxa9/HXxpzUSEN4DJQVlZoOloqLQbrfbbHZ7YWFFhQWHX9/vkwViEEEAY8BsMFjwMRjMfPSjmR+d/bUpBiMQ4DBQgFCAYl9QUlIaH37989eqGOQuAoyB3NLS0lIU+tLc3KIibPiMD7/++WvyHuBcg3l5OTlF0ZOTh6OPw6+LPy2TQAwCiAcQDPD/xdHXw59FFwHCAEYBPgMj0Y9pPz382r0HODk4dGh+PkbBwPx8LvjCu1+Pv9YhwGFAcIbo4c8qCGAQcDDA/xL7z/XwZw0EEh09/NkMgQG69ssaDAxI8Onr0c86EAj+0Y9+svL8fzrKFrUfXd9yAAAAAElFTkSuQmCC;" vertex="1" parent="1">
          <mxGeometry x="529" y="351.59" width="124.83" height="124.83" as="geometry" />
        </mxCell>
        <mxCell id="6D9CgemH8EwdIrZlMoVj-7" value="Endpoint" style="text;html=1;align=center;verticalAlign=middle;whiteSpace=wrap;rounded=0;" vertex="1" parent="1">
          <mxGeometry x="412" y="384" width="60" height="30" as="geometry" />
        </mxCell>
        <mxCell id="6D9CgemH8EwdIrZlMoVj-10" value="Website" style="text;html=1;align=center;verticalAlign=middle;whiteSpace=wrap;rounded=0;" vertex="1" parent="1">
          <mxGeometry x="693" y="384" width="94" height="30" as="geometry" />
        </mxCell>
        <mxCell id="6D9CgemH8EwdIrZlMoVj-14" value="Metrics" style="text;html=1;align=center;verticalAlign=middle;whiteSpace=wrap;rounded=0;" vertex="1" parent="1">
          <mxGeometry x="412" y="293" width="60" height="30" as="geometry" />
        </mxCell>
        <mxCell id="6D9CgemH8EwdIrZlMoVj-15" value="HTTP Response" style="text;html=1;align=center;verticalAlign=middle;whiteSpace=wrap;rounded=0;" vertex="1" parent="1">
          <mxGeometry x="687" y="484" width="106" height="30" as="geometry" />
        </mxCell>
      </root>
    </mxGraphModel>
  </diagram>
</mxfile>
